<?xml version="1.0" standalone="no"?>
<!DOCTYPE svg PUBLIC "-//W3C//DTD SVG 20010904//EN"
 "http://www.w3.org/TR/2001/REC-SVG-20010904/DTD/svg10.dtd">
<svg version="1.0" xmlns="http://www.w3.org/2000/svg"
 width="894.000000pt" height="894.000000pt" viewBox="0 0 894.000000 894.000000"
 preserveAspectRatio="xMidYMid meet">
<metadata>
Created by potrace 1.14, written by Peter Selinger 2001-2017
</metadata>
<g transform="translate(0.000000,894.000000) scale(0.100000,-0.100000)"
fill="#000000" stroke="none">
<path d="M1187 8633 c-426 -54 -798 -303 -1012 -679 -75 -131 -141 -323 -162
-474 -13 -91 -7 -348 10 -435 95 -488 428 -875 891 -1035 46 -16 96 -32 112
-35 276 -55 483 -52 704 13 30 9 57 17 60 17 3 1 14 5 25 10 11 4 41 16 66 26
152 58 356 201 474 334 183 204 303 457 343 720 15 101 5 435 -14 466 -2 3 -6
19 -9 36 -2 17 -18 72 -35 123 -99 304 -315 570 -594 735 -103 60 -145 80
-257 118 -187 65 -400 86 -602 60z"/>
<path d="M7410 8639 c-97 -13 -248 -53 -345 -92 -72 -30 -249 -127 -265 -146
-3 -3 -23 -19 -45 -36 -107 -78 -246 -233 -333 -370 -64 -102 -130 -269 -163
-412 -23 -99 -35 -385 -20 -463 5 -25 12 -63 15 -85 17 -108 84 -291 149 -405
83 -147 212 -295 352 -404 179 -139 385 -230 615 -271 19 -4 100 -8 180 -10
241 -6 428 34 633 135 141 71 238 141 357 260 210 208 325 434 385 750 10 52
13 324 5 373 -5 23 -11 60 -14 82 -14 101 -77 279 -139 395 -122 225 -337 436
-570 558 -111 59 -286 117 -412 137 -67 10 -316 13 -385 4z"/>
<path d="M4257 7164 c-1 -1 -31 -4 -67 -5 -61 -2 -66 -4 -87 -35 -13 -18 -23
-35 -23 -38 0 -5 -196 -358 -219 -396 -6 -8 -39 -67 -74 -130 -35 -63 -117
-209 -182 -325 -65 -115 -132 -235 -148 -265 -17 -30 -50 -88 -74 -128 -24
-41 -43 -75 -43 -77 0 -1 -27 -51 -60 -110 -33 -59 -60 -110 -60 -114 0 -4 20
-18 45 -31 33 -18 48 -22 53 -13 10 16 57 76 117 148 28 33 118 143 200 245
83 102 157 194 167 205 26 31 169 206 208 255 41 51 397 488 546 670 56 69
101 126 100 127 -9 9 -390 25 -399 17z"/>
<path d="M3807 7109 c-75 -15 -155 -34 -179 -42 -24 -8 -58 -18 -75 -22 -18
-3 -33 -8 -33 -9 0 -2 -41 -117 -91 -257 -50 -140 -92 -258 -93 -264 -2 -5 -6
-19 -10 -30 -5 -11 -15 -38 -23 -59 -8 -22 -27 -78 -43 -125 -28 -84 -208
-590 -228 -642 -10 -26 -8 -28 38 -47 l48 -20 159 281 c87 155 163 291 169
302 52 95 302 540 325 578 16 26 29 49 29 52 0 3 38 72 85 155 47 82 88 157
91 164 7 19 -3 18 -169 -15z"/>
<path d="M4785 7123 c-6 -4 -40 -44 -75 -88 -35 -44 -67 -82 -70 -85 -3 -3
-13 -14 -21 -26 -8 -11 -33 -43 -56 -70 -23 -27 -96 -116 -163 -199 -67 -82
-136 -168 -154 -190 -19 -22 -94 -114 -168 -205 -234 -288 -402 -494 -419
-515 -10 -11 -74 -90 -143 -175 l-125 -154 36 -34 c43 -39 46 -38 129 34 67
58 274 238 318 275 16 13 41 35 56 49 33 31 49 44 225 195 77 66 145 124 151
130 6 5 37 33 69 60 32 28 63 55 69 60 6 6 56 48 111 95 137 116 156 133 174
150 9 9 47 43 86 75 38 33 75 65 81 70 6 6 37 33 69 60 233 199 390 337 393
344 4 13 -347 117 -453 134 -96 16 -111 17 -120 10z"/>
<path d="M3317 6965 c-120 -49 -296 -139 -302 -154 -4 -9 -8 -34 -11 -56 -3
-22 -9 -60 -14 -85 -6 -25 -12 -58 -14 -75 -10 -59 -26 -160 -31 -185 -2 -14
-11 -68 -20 -120 -17 -103 -19 -112 -34 -198 -6 -31 -13 -73 -16 -92 -4 -19
-17 -96 -30 -170 -13 -74 -20 -138 -17 -141 7 -6 92 -29 92 -25 0 3 136 387
205 581 26 72 52 148 60 170 7 22 36 105 65 185 29 80 58 163 65 185 7 22 27
77 44 123 16 45 27 82 23 81 -4 0 -33 -11 -65 -24z"/>
<path d="M5444 6902 c-17 -15 -56 -48 -85 -74 -30 -25 -64 -54 -75 -65 -12
-10 -45 -38 -74 -63 -29 -25 -58 -50 -64 -55 -6 -6 -58 -51 -116 -100 -94 -81
-153 -132 -184 -160 -6 -6 -74 -64 -151 -130 -77 -66 -142 -122 -145 -125 -3
-3 -52 -46 -110 -96 -205 -176 -415 -358 -426 -368 -6 -6 -30 -27 -54 -46 -24
-19 -49 -40 -55 -47 -7 -6 -34 -31 -61 -54 -27 -23 -76 -65 -108 -93 -89 -77
-90 -78 -140 -120 -50 -42 -54 -50 -30 -73 14 -14 17 -14 37 5 64 58 90 81
183 162 l101 88 29 -58 29 -59 100 60 c272 162 430 256 463 275 101 58 1508
897 1515 904 17 16 -236 177 -423 269 -58 28 -109 51 -115 51 -5 0 -24 -13
-41 -28z"/>
<path d="M2784 6678 c-49 -33 -107 -76 -129 -94 l-41 -33 1 -423 0 -423 44 -3
c24 -2 47 0 51 5 5 4 11 28 14 53 3 25 8 56 11 70 24 138 47 271 51 300 2 19
6 46 9 60 11 54 15 77 25 135 5 33 12 70 14 81 2 12 7 39 11 60 9 61 15 95 26
159 20 107 20 115 11 115 -5 0 -49 -28 -98 -62z"/>
<path d="M5805 6348 c-176 -105 -333 -199 -350 -208 -24 -14 -220 -130 -285
-169 -41 -25 -329 -196 -355 -211 -16 -10 -154 -91 -305 -182 -151 -90 -328
-195 -392 -233 -65 -38 -118 -73 -118 -77 0 -3 16 -41 35 -82 l35 -76 97 36
c124 46 214 79 233 87 8 3 132 49 275 102 143 53 267 99 275 102 8 4 117 45
242 92 l227 86 147 140 c81 77 164 156 184 175 20 19 78 75 129 124 l93 88 66
-135 c49 -99 71 -133 82 -130 8 3 60 22 115 43 55 21 157 60 228 86 70 26 127
50 127 53 0 14 -145 184 -231 271 -89 90 -222 211 -230 210 -2 -1 -148 -87
-324 -192z"/>
<path d="M2406 6367 l-97 -93 15 -90 c8 -49 26 -156 41 -238 14 -81 27 -162
30 -180 14 -83 15 -85 43 -80 75 12 67 -31 67 394 1 209 0 380 -1 380 -1 0
-45 -42 -98 -93z"/>
<path d="M2188 6127 c-100 -126 -102 -129 -91 -167 12 -40 111 -322 115 -326
2 -1 22 3 46 9 49 13 48 7 22 153 -10 60 -22 126 -25 148 -4 21 -9 48 -11 60
-2 11 -7 37 -10 56 -12 75 -15 94 -18 97 -1 2 -14 -12 -28 -30z"/>
<path d="M5839 5967 c-64 -62 -159 -152 -211 -202 -52 -49 -173 -165 -269
-256 -96 -92 -190 -181 -209 -199 -19 -18 -116 -110 -215 -205 -99 -95 -203
-194 -232 -221 -71 -68 -366 -350 -375 -359 -7 -7 -39 56 -186 365 -27 58 -83
175 -124 260 -41 85 -90 186 -107 223 -33 68 -33 68 -54 50 -12 -9 -26 -22
-32 -28 -5 -6 -71 -61 -145 -122 -126 -105 -279 -232 -325 -271 -11 -10 -117
-98 -235 -197 -118 -99 -217 -182 -220 -185 -3 -3 -86 -73 -185 -155 -232
-193 -222 -185 -264 -223 -25 -23 0 -11 84 40 115 70 667 411 858 531 50 32
99 61 107 64 8 4 39 23 70 43 30 20 76 49 101 63 l45 27 78 -198 c43 -108 84
-210 91 -227 7 -16 71 -174 141 -350 70 -176 128 -322 130 -323 2 -3 92 68
438 351 39 32 78 64 86 70 42 34 236 193 246 202 6 5 26 21 45 35 18 14 49 39
69 55 19 17 58 48 85 70 28 22 52 42 55 45 3 3 39 33 80 65 41 33 77 62 80 66
3 3 28 23 55 45 28 21 61 49 75 61 14 11 61 50 105 84 44 35 82 66 85 69 3 3
18 16 34 28 l29 22 124 -337 c68 -186 130 -356 137 -378 8 -22 89 -245 181
-495 92 -250 185 -504 207 -565 169 -470 193 -535 200 -535 10 0 232 338 286
437 79 145 155 343 192 500 11 50 10 55 -18 115 -17 35 -194 394 -394 798
-200 404 -434 876 -519 1047 -85 172 -156 313 -159 313 -3 0 -57 -51 -121
-113z"/>
<path d="M6408 5867 c-136 -51 -248 -95 -248 -100 0 -7 247 -517 254 -524 1
-1 85 13 187 31 101 19 202 37 224 41 22 4 45 8 50 9 6 2 31 6 57 10 l47 8
-16 42 c-38 103 -105 247 -161 351 -49 90 -134 225 -142 224 -3 0 -116 -41
-252 -92z"/>
<path d="M1964 5804 l-41 -73 43 -77 c24 -42 44 -80 44 -85 0 -19 24 -20 61
-4 43 20 44 21 28 62 -6 15 -29 77 -50 137 -22 61 -40 111 -42 112 -1 1 -21
-31 -43 -72z"/>
<path d="M1836 5556 c-14 -32 -26 -62 -26 -65 0 -4 13 -20 29 -35 l29 -28 31
23 c17 12 31 28 31 33 0 6 -16 38 -34 71 l-34 59 -26 -58z"/>
<path d="M5160 5401 c-8 -5 -238 -92 -510 -194 -272 -102 -503 -189 -512 -192
-14 -6 -12 -16 22 -87 22 -44 41 -83 44 -85 2 -2 69 8 148 22 78 15 154 29
168 31 14 3 50 9 80 15 30 7 62 13 70 14 8 2 17 4 20 4 7 1 54 45 260 241 91
87 185 176 209 199 39 37 40 54 1 32z"/>
<path d="M1751 5344 c-15 -34 -9 -40 14 -14 12 14 15 24 8 31 -6 6 -14 1 -22
-17z"/>
<path d="M6936 5223 c-2 -3 -48 -11 -251 -47 -16 -3 -39 -8 -50 -10 -11 -2
-53 -9 -92 -16 -40 -6 -73 -15 -73 -18 0 -8 226 -469 265 -542 l24 -45 183 0
183 0 -1 35 c-3 128 -22 279 -55 430 -11 52 -21 100 -23 105 -1 6 -8 34 -16
63 l-14 53 -38 -3 c-21 -1 -40 -3 -42 -5z"/>
<path d="M5710 4999 c-19 -4 -52 -10 -72 -13 -113 -18 -125 -23 -270 -142 -79
-64 -194 -158 -255 -208 l-113 -91 230 -3 c127 -1 333 -1 459 0 l229 3 -83
228 c-45 125 -84 229 -86 231 -2 1 -20 -1 -39 -5z"/>
<path d="M4529 4786 c-2 -2 -60 -14 -129 -26 -69 -11 -128 -25 -133 -29 -8 -8
53 -141 66 -141 4 0 18 10 31 23 13 12 49 47 82 78 65 62 100 99 92 99 -2 0
-7 -2 -9 -4z"/>
<path d="M3816 4652 c-3 -5 -3 -32 1 -61 5 -46 8 -51 30 -51 20 0 24 4 18 18
-4 9 -10 26 -13 37 -10 35 -30 67 -36 57z"/>
<path d="M3819 4389 c-1 -21 -2 -47 -3 -56 -1 -17 20 -25 104 -38 19 -3 40 -8
47 -10 6 -2 -2 30 -19 70 l-30 74 -49 -1 -49 0 -1 -39z"/>
<path d="M4840 4413 c-14 -9 -27 -19 -30 -23 -3 -3 -48 -40 -100 -82 -145
-116 -156 -126 -140 -132 8 -3 94 -19 191 -36 97 -17 187 -33 200 -35 53 -11
136 -25 174 -30 22 -3 46 -8 54 -11 8 -2 30 -7 50 -10 31 -5 228 -41 496 -90
44 -8 95 -17 114 -20 18 -3 43 -8 55 -10 23 -5 186 -33 228 -41 l27 -4 -26 68
c-13 37 -29 77 -33 88 -5 11 -29 76 -54 145 -24 69 -54 151 -66 182 l-21 57
-547 1 c-501 0 -549 -1 -572 -17z"/>
<path d="M6820 4422 c0 -17 241 -504 247 -498 2 2 6 16 9 32 2 16 7 40 10 54
3 14 8 41 10 60 3 19 7 46 9 60 7 38 17 168 19 235 l1 60 -152 3 c-84 1 -153
-1 -153 -6z"/>
<path d="M3781 4149 c-7 -28 -9 -54 -5 -58 5 -5 63 -27 129 -51 66 -23 135
-49 153 -58 18 -8 35 -13 37 -11 3 4 -62 178 -71 188 -2 2 -25 7 -51 12 -27 4
-61 10 -78 13 -16 3 -46 8 -66 11 l-35 6 -13 -52z"/>
<path d="M4333 4002 l-105 -85 214 -79 c117 -43 247 -91 288 -107 41 -16 300
-113 575 -216 275 -102 509 -190 520 -195 11 -5 119 -45 240 -90 121 -45 255
-95 299 -111 43 -17 79 -29 80 -27 3 4 -238 666 -244 672 -3 2 -21 7 -40 10
-19 3 -98 17 -175 32 -77 14 -153 28 -170 31 -16 3 -102 18 -190 34 -88 16
-198 36 -245 44 -47 8 -94 17 -105 19 -24 5 -179 33 -215 40 -14 2 -63 11
-110 20 -91 16 -99 18 -230 41 -47 8 -96 17 -110 20 -14 2 -58 11 -98 18 l-74
14 -105 -85z"/>
<path d="M3702 3937 c-12 -28 -19 -54 -14 -58 4 -3 120 -73 257 -154 138 -82
340 -202 450 -267 110 -66 209 -125 220 -131 10 -7 46 -28 80 -48 162 -98 614
-366 643 -381 18 -10 80 -47 138 -83 59 -36 108 -65 109 -65 2 0 54 -31 117
-68 102 -62 293 -176 343 -205 10 -7 36 -22 57 -34 21 -13 41 -23 45 -23 20 0
221 194 322 310 31 36 59 67 64 68 13 6 7 46 -16 100 -21 52 -24 54 -87 76
-36 13 -94 35 -130 49 -36 14 -270 102 -520 195 -250 94 -799 299 -1220 457
-421 158 -781 293 -801 300 l-36 13 -21 -51z"/>
<path d="M3590 3747 c-16 -22 -30 -44 -30 -48 0 -3 93 -86 208 -185 114 -98
221 -190 237 -205 17 -15 71 -62 120 -104 50 -43 104 -89 120 -104 17 -14 95
-82 175 -151 156 -134 197 -169 214 -185 6 -5 58 -50 116 -100 58 -49 112 -96
121 -105 19 -18 53 -47 134 -115 33 -27 62 -52 65 -56 3 -3 73 -63 155 -134
83 -71 177 -153 209 -182 33 -29 64 -53 69 -53 14 0 154 68 232 112 89 52 315
200 315 207 0 3 -109 71 -243 150 -133 79 -395 235 -582 346 -187 111 -464
275 -615 365 -151 89 -299 178 -327 196 -29 19 -55 34 -58 34 -3 0 -23 11 -44
25 -22 13 -156 94 -300 179 l-260 154 -31 -41z"/>
<path d="M1740 3624 c0 -17 17 -36 24 -26 3 5 -1 15 -9 22 -8 7 -15 9 -15 4z"/>
<path d="M3438 3573 l-37 -36 87 -106 c47 -58 94 -115 104 -126 10 -11 70 -85
135 -165 64 -80 119 -147 122 -150 4 -3 51 -61 106 -130 55 -69 102 -127 105
-130 3 -3 35 -41 70 -85 119 -148 471 -579 513 -629 23 -27 48 -59 56 -70 8
-12 19 -25 25 -31 6 -5 28 -31 48 -57 43 -53 31 -52 213 -12 134 29 397 113
393 124 -2 5 -46 46 -98 91 -166 143 -213 184 -224 194 -6 6 -92 80 -191 165
-99 85 -182 157 -185 160 -3 3 -99 86 -215 185 -115 99 -212 182 -215 185 -3
3 -36 32 -75 65 -38 33 -72 62 -75 65 -3 3 -36 32 -75 65 -38 33 -85 74 -105
92 -19 17 -48 42 -65 55 -16 12 -37 30 -45 39 -8 9 -78 69 -155 135 -77 65
-146 124 -153 131 -19 19 -23 17 -64 -24z"/>
<path d="M1827 3496 l-26 -33 27 -58 c30 -64 29 -64 75 16 l26 46 -38 31 -39
31 -25 -33z"/>
<path d="M3272 3440 c-23 -17 -42 -33 -42 -36 0 -3 11 -24 24 -47 13 -23 93
-166 178 -317 85 -151 169 -300 186 -330 66 -119 503 -896 510 -908 12 -19 52
-23 212 -24 124 -1 330 8 337 15 2 3 -48 68 -85 112 -9 11 -35 43 -57 70 -22
28 -42 52 -45 55 -3 3 -39 46 -79 95 -89 110 -89 110 -342 420 -165 202 -390
478 -479 589 -8 10 -20 23 -25 30 -6 6 -38 45 -70 86 -33 41 -62 77 -65 80 -3
3 -24 27 -45 55 -75 94 -66 89 -113 55z"/>
<path d="M1968 3317 l-52 -91 35 -64 c18 -35 39 -68 45 -72 7 -7 25 33 57 123
26 73 47 137 47 143 0 5 -18 19 -40 31 l-40 21 -52 -91z"/>
<path d="M3069 3332 c-41 -20 -43 -5 26 -197 48 -134 92 -260 150 -425 39
-111 137 -388 192 -546 22 -60 42 -114 45 -120 3 -5 13 -35 22 -66 9 -31 22
-63 30 -71 14 -14 233 -71 316 -82 24 -4 47 -8 50 -10 3 -2 27 -6 53 -9 55 -7
60 -24 -38 149 -34 61 -76 135 -93 165 -139 250 -243 437 -251 450 -6 8 -21
35 -34 60 -14 25 -34 61 -46 80 -11 19 -24 42 -28 50 -4 8 -22 42 -41 75 -19
33 -68 121 -110 195 -41 74 -90 162 -109 195 -19 33 -41 75 -50 93 -19 36 -32
38 -84 14z"/>
<path d="M2206 3311 c-5 -8 -25 -60 -86 -233 l-42 -118 63 -85 c34 -46 66 -82
70 -80 3 3 10 24 13 48 4 24 9 56 11 70 8 45 25 141 29 163 2 12 7 44 11 72 3
29 11 66 16 84 5 18 9 38 9 43 0 13 -88 47 -94 36z"/>
<path d="M2861 3268 c-39 -11 -39 2 3 -238 48 -276 75 -435 80 -475 4 -22 8
-51 11 -65 10 -46 15 -73 40 -225 15 -82 27 -150 28 -151 34 -22 308 -145 355
-159 21 -6 21 -5 11 22 -12 29 -100 279 -163 463 -20 58 -41 114 -46 125 -5
11 -16 40 -24 65 -8 25 -38 110 -66 190 -94 266 -160 454 -160 457 0 6 -35 1
-69 -9z"/>
<path d="M2405 3248 c-5 -13 -59 -325 -70 -403 -3 -22 -8 -45 -10 -52 -2 -6
-7 -37 -10 -67 l-7 -55 92 -91 c50 -49 94 -90 98 -90 12 0 9 760 -3 760 -5 1
-27 3 -48 6 -26 4 -38 2 -42 -8z"/>
<path d="M2619 3240 c-1 -3 -2 -196 -3 -430 l-1 -424 100 -73 c55 -41 119 -85
142 -99 l42 -24 -5 27 c-2 16 -6 37 -9 49 -6 25 -75 429 -80 466 -3 24 -12 72
-30 173 -3 17 -17 97 -31 180 -14 82 -27 152 -30 155 -7 6 -94 7 -95 0z"/>
<path d="M7439 2986 c-2 -2 -26 -7 -54 -11 -183 -24 -396 -107 -562 -219 -324
-217 -541 -575 -588 -971 -7 -64 -7 -225 0 -301 14 -136 70 -324 135 -454 201
-399 576 -668 1030 -738 62 -10 302 -9 375 1 279 38 548 173 756 377 220 216
364 505 397 795 9 77 8 274 -1 345 -36 288 -173 565 -382 776 -197 197 -424
321 -700 380 -70 15 -395 31 -406 20z"/>
</g>
</svg>
