<?xml version="1.0" encoding="UTF-8" standalone="no"?>
<svg
   viewBox="0 0 438.253 438.253"
   xml:space="preserve"
   version="1.1"
   id="svg8"
   sodipodi:docname="equipment.svg"
   inkscape:version="1.1.2 (b8e25be833, 2022-02-05)"
   xmlns:inkscape="http://www.inkscape.org/namespaces/inkscape"
   xmlns:sodipodi="http://sodipodi.sourceforge.net/DTD/sodipodi-0.dtd"
   xmlns="http://www.w3.org/2000/svg"
   xmlns:svg="http://www.w3.org/2000/svg"><defs
     id="defs12" /><sodipodi:namedview
     id="namedview10"
     pagecolor="#ffffff"
     bordercolor="#666666"
     borderopacity="1.0"
     inkscape:pageshadow="2"
     inkscape:pageopacity="0.0"
     inkscape:pagecheckerboard="0"
     showgrid="false"
     inkscape:zoom="1.4968523"
     inkscape:cx="219.1265"
     inkscape:cy="219.1265"
     inkscape:window-width="1920"
     inkscape:window-height="1031"
     inkscape:window-x="-8"
     inkscape:window-y="-8"
     inkscape:window-maximized="1"
     inkscape:current-layer="svg8"
     showguides="true"
     inkscape:guide-bbox="true"><sodipodi:guide
       position="231.779,231.596"
       orientation="1,0"
       id="guide885" /><sodipodi:guide
       position="303.30314,231.8198"
       orientation="0,-1"
       id="guide903" /></sodipodi:namedview><path
     fill="#f44336"
     d="m 323.30259,397.50345 c -2.2981,0 -4.16108,-1.86298 -4.16108,-4.16108 v -28.79705 c 0,-2.29811 1.86298,-4.16109 4.16108,-4.16109 2.2981,0 4.16108,1.86298 4.16108,4.16109 v 28.79705 c 0,2.2981 -1.86298,4.16108 -4.16108,4.16108 z m 31.82833,-4.16108 v -28.79705 c 0,-2.29811 -1.86296,-4.16109 -4.16109,-4.16109 -2.29812,0 -4.16109,1.86298 -4.16109,4.16109 v 28.79705 c 0,2.2981 1.86297,4.16108 4.16109,4.16108 2.29813,0 4.16109,-1.86298 4.16109,-4.16108 z m 67.03978,28.29813 c -2.05003,-1.03869 -4.5542,-0.21756 -5.59209,1.83285 -1.54675,3.05582 -5.50413,5.03055 -10.0809,5.03016 -4.57641,0 -8.53301,-1.97434 -10.07975,-5.03016 -0.70856,-1.39969 -2.14395,-2.28187 -3.71247,-2.28187 -1.56855,0 -3.0043,0.88218 -3.71248,2.28187 -1.54675,3.05582 -5.50334,5.03016 -10.07973,5.03055 -4.57719,0 -8.53457,-1.97432 -10.08211,-5.03055 -0.70856,-1.39969 -2.14394,-2.28147 -3.71247,-2.28147 -1.56855,0 -3.00391,0.88217 -3.71249,2.28187 -1.54672,3.05583 -5.50292,5.03015 -10.07891,5.03015 -4.57601,0 -8.53263,-1.97432 -10.07972,-5.03055 -0.7086,-1.39969 -2.14396,-2.28147 -3.71289,-2.28147 -1.56854,0 -3.00391,0.88255 -3.7125,2.28227 -1.54631,3.05502 -5.50172,5.02975 -10.07734,5.03015 -4.57679,4e-4 -8.53457,-1.97433 -10.0817,-5.03055 -0.70856,-1.3997 -2.14395,-2.28146 -3.71248,-2.28146 -1.56853,0 -3.00392,0.88214 -3.71247,2.28186 -1.54675,3.05582 -5.50334,5.03015 -10.08013,5.03015 -4.57679,0 -8.53338,-1.97433 -10.0805,-5.03055 -1.03791,-2.05003 -3.5413,-2.87194 -5.59172,-1.83286 -2.05043,1.03788 -2.87114,3.54168 -1.83285,5.59171 2.99597,5.91785 9.70363,9.59346 17.50547,9.59346 5.41695,0 10.30681,-1.77259 13.7926,-4.83676 3.4862,3.06495 8.37684,4.83756 13.79497,4.83718 5.41615,-4.2e-4 10.30445,-1.77301 13.78943,-4.83677 3.4858,3.06413 8.37527,4.83677 13.79221,4.83635 5.41656,0 10.30562,-1.77259 13.79141,-4.83676 3.4862,3.06495 8.37644,4.83718 13.79458,4.83718 5.41695,0 10.30642,-1.77264 13.79222,-4.83718 3.4854,3.06417 8.37486,4.83676 13.79182,4.83676 3.7e-4,0 3.7e-4,0 7.2e-4,0 7.80181,0 14.50988,-3.67602 17.50546,-9.59346 1.03789,-2.05043 0.21715,-4.55421 -1.83325,-5.5921 z m 0,-19.53411 c -2.05003,-1.03829 -4.5542,-0.21757 -5.59209,1.83286 -1.54675,3.05582 -5.50413,5.03055 -10.0809,5.03016 -4.57641,0 -8.53301,-1.97434 -10.07975,-5.03016 -0.70856,-1.3997 -2.14395,-2.28186 -3.71247,-2.28186 -1.56855,0 -3.0043,0.88216 -3.71248,2.28186 -1.54675,3.05582 -5.50334,5.03016 -10.07973,5.03055 -4.57719,0 -8.53457,-1.97434 -10.08211,-5.03055 -0.70856,-1.3997 -2.14394,-2.28145 -3.71247,-2.28145 -1.56855,0 -3.00391,0.88215 -3.71249,2.28185 -1.54672,3.05581 -5.50292,5.03015 -10.07891,5.03015 -4.57601,0 -8.53263,-1.97434 -10.07972,-5.03055 -0.7086,-1.3997 -2.14396,-2.28145 -3.71289,-2.28145 -1.56854,0 -3.00391,0.88253 -3.7125,2.28223 -1.54631,3.05504 -5.50172,5.02977 -10.07734,5.03016 -4.57679,4.1e-4 -8.53457,-1.97432 -10.0817,-5.03054 -0.70856,-1.3997 -2.14395,-2.28147 -3.71248,-2.28147 -1.56853,0 -3.00392,0.88215 -3.71247,2.28185 -1.54675,3.05584 -5.50334,5.03016 -10.08013,5.03016 -4.57679,0 -8.53338,-1.97432 -10.0805,-5.03054 -1.03791,-2.05003 -3.5413,-2.87155 -5.59172,-1.83286 -2.05043,1.03789 -2.87114,3.54169 -1.83285,5.59169 2.99597,5.91786 9.70363,9.59347 17.50547,9.59347 5.41695,0 10.30681,-1.7726 13.7926,-4.83675 3.4862,3.06494 8.37684,4.83757 13.79497,4.83718 5.41615,-4.3e-4 10.30445,-1.77303 13.78943,-4.83679 3.4858,3.06415 8.37527,4.83679 13.79221,4.83636 5.41656,0 10.30562,-1.7726 13.79141,-4.83675 3.4862,3.06494 8.37644,4.83718 13.79458,4.83718 5.41695,0 10.30642,-1.77264 13.79222,-4.83718 3.4854,3.06415 8.37486,4.83675 13.79182,4.83675 3.7e-4,0 3.7e-4,0 7.2e-4,0 7.80181,0 14.50988,-3.67601 17.50546,-9.59347 1.03789,-2.0504 0.21715,-4.5542 -1.83325,-5.59209 z m -122.37386,-8.76402 v -28.79705 c 0,-2.29811 -1.86296,-4.16109 -4.16109,-4.16109 -2.2981,0 -4.16108,1.86298 -4.16108,4.16109 v 28.79705 c 0,2.2981 1.86298,4.16108 4.16108,4.16108 2.29813,0 4.16109,-1.86298 4.16109,-4.16108 z m 51.18172,-93.8518 c -2.2981,0 -4.1611,1.86297 -4.1611,4.16108 v 8.13947 c 0,2.2981 1.863,4.16108 4.1611,4.16108 2.2981,0 4.16108,-1.86298 4.16108,-4.16108 v -8.13947 c 0,-2.29811 -1.86298,-4.16108 -4.16108,-4.16108 z m 87.4917,87.24043 c 0,1.10368 -0.4383,2.16217 -1.21861,2.94208 -0.7803,0.78032 -1.83881,1.21901 -2.94249,1.21901 h -7.21056 c -2.29811,0 -4.16108,-1.86299 -4.16108,-4.16109 0,-2.29809 1.86297,-4.16108 4.16108,-4.16108 h 3.04949 l -4e-4,-29.01779 H 271.79315 l -7.4e-4,29.01779 h 3.04949 c 2.29813,0 4.16109,1.86299 4.16109,4.16108 0,2.2981 -1.86296,4.16109 -4.16109,4.16109 h -7.21055 c -1.10367,0 -2.1622,-0.43832 -2.94249,-1.21901 -0.7803,-0.78029 -1.2186,-1.83881 -1.2186,-2.94208 l 7.3e-4,-37.33995 c 0,-2.2981 1.86296,-4.16108 4.16108,-4.16108 h 58.34391 V 332.717 h -16.67523 c -2.29811,0 -4.16107,-1.86297 -4.16107,-4.16107 v -41.66948 c 0,-2.29811 1.86296,-4.16109 4.16107,-4.16109 h 16.67524 v -12.51138 h -16.67524 c -2.29811,0 -4.16107,-1.86297 -4.16107,-4.16108 0,-2.2981 1.86296,-4.16108 4.16107,-4.16108 h 20.75667 c 0.0529,-8e-4 0.10616,-8e-4 0.15929,0 h 41.50701 c 0.053,-8e-4 0.10581,-8e-4 0.15932,0 h 20.75627 c 2.29811,0 4.16108,1.86298 4.16108,4.16108 0,2.29811 -1.86297,4.16108 -4.16108,4.16108 h -16.67525 v 12.51178 h 16.67525 c 2.29811,0 4.16108,1.86298 4.16108,4.16109 v 41.66947 c 0,2.2981 -1.86297,4.16109 -4.16108,4.16109 h -16.67525 v 12.51296 h 58.34432 c 2.29811,0 4.16109,1.86299 4.16109,4.1611 z M 334.29814,282.72536 H 367.6423 V 270.21398 H 334.29814 Z M 367.6423,332.717 h -33.34416 v 12.51297 h 33.34416 z m 4.16107,-8.32216 h 16.67524 v -33.34732 h -75.01677 v 33.34732 z m 10.99478,68.94753 v -28.79705 c 0,-2.29811 -1.86299,-4.16109 -4.16109,-4.16109 -2.2981,0 -4.16109,1.86298 -4.16109,4.16109 v 28.79705 c 0,2.2981 1.86299,4.16108 4.16109,4.16108 2.2981,0 4.16109,-1.86298 4.16109,-4.16108 z m -10.99279,-93.8518 c -2.29811,0 -4.16107,1.86297 -4.16107,4.16108 v 8.13947 c 0,2.2981 1.86296,4.16108 4.16107,4.16108 2.29811,0 4.16109,-1.86298 4.16109,-4.16108 v -8.13947 c 0,-2.29811 -1.86339,-4.16108 -4.16109,-4.16108 z m -41.65324,0 c -2.29809,0 -4.16106,1.86297 -4.16106,4.16108 v 8.13947 c 0,2.2981 1.86297,4.16108 4.16106,4.16108 2.29813,0 4.16108,-1.86298 4.16108,-4.16108 v -8.13947 c 0,-2.29811 -1.86295,-4.16108 -4.16108,-4.16108 z m 80.31326,93.8518 v -28.79705 c 0,-2.29811 -1.86296,-4.16109 -4.16108,-4.16109 -2.2981,0 -4.16108,1.86298 -4.16108,4.16109 v 28.79705 c 0,2.2981 1.86298,4.16108 4.16108,4.16108 2.29812,0 4.16108,-1.86298 4.16108,-4.16108 z"
     id="path2-5"
     style="fill:#22a7f0;fill-opacity:1;stroke:none;stroke-width:0.3;stroke-miterlimit:4;stroke-dasharray:none;stroke-opacity:1" /><g
     fill="#f44336"
     id="g6"
     transform="matrix(0.65400415,0,0,0.65399916,1.1151332,-15.42289)"
     style="stroke-width:1.52905"><path
       d="m 413.426,314.527 -5.764,-266.46 a 4.487,4.487 0 0 0 2.965,-4.214 c 0,-2.011 -1.328,-3.694 -3.149,-4.271 l -0.217,-10.014 a 4.5,4.5 0 0 0 -4.499,-4.402 h -22.41 a 4.5,4.5 0 0 0 -4.499,4.402 l -0.217,10.014 c -1.82,0.576 -3.149,2.259 -3.149,4.271 0,1.944 1.239,3.584 2.965,4.214 l -5.764,266.46 h -24.117 v 19.15 H 296.053 A 627.213,627.213 0 0 1 282.146,206.656 h 1.962 a 4.5,4.5 0 0 0 0,-9 H 170.519 a 4.5,4.5 0 0 0 0,9 h 1.887 c -0.201,27.741 -2.241,55.696 -6.116,83.171 a 629.306,629.306 0 0 1 -3.856,23.904 656.304,656.304 0 0 1 -11.257,-116.646 h 2.019 a 4.5,4.5 0 0 0 0,-9 H 34.759 a 4.5,4.5 0 0 0 0,9 h 2.019 c -0.411,59.977 -9.006,119.58 -25.611,177.231 L 0,413.087 h 438.253 v -98.56 z M 383.598,87.736 h 15.92 l 0.657,30.383 h -17.234 z m -0.852,39.383 h 17.624 l 0.657,30.382 h -18.938 z m 16.577,-48.383 h -15.53 l 0.657,-30.383 h 14.216 z m -17.428,87.765 h 19.327 l 0.657,30.383 h -20.642 z m -0.852,39.383 h 21.031 l 0.657,30.383 h -22.346 z m -0.852,39.382 h 22.735 l 0.657,30.382 h -24.05 z m 18.168,-211.099 0.112,5.187 h -13.826 l 0.112,-5.187 z m -19.02,250.481 h 24.439 l 0.646,29.879 H 378.692 Z M 273.591,226.584 h -92.624 c 0.06,-1.543 0.101,-3.085 0.149,-4.628 h 92.323 c 0.048,1.543 0.093,3.086 0.152,4.628 z m -23.893,-13.628 v -6.299 h 8.919 v 6.299 z m -9,0 h -8.919 v -6.299 h 8.919 z m -17.919,0 h -8.919 v -6.299 h 8.919 z m -17.919,0 h -8.919 v -6.299 h 8.919 z m 68.363,0 h -5.607 v -6.299 h 5.508 c 0.016,2.101 0.064,4.199 0.099,6.299 z m -86.282,-6.299 v 6.299 h -5.606 c 0.036,-2.1 0.083,-4.201 0.098,-6.299 z m -44.277,12.125 h -97.37 c 0.075,-1.896 0.126,-3.794 0.185,-5.691 h 97.001 c 0.058,1.897 0.109,3.795 0.184,5.691 z m -15.685,-14.691 h -9.75 v -7.003 h 9.75 z m 9,-7.003 h 6.176 c 0.016,2.335 0.067,4.669 0.107,7.003 h -6.283 z m -56.25,7.003 v -7.003 h 9.75 v 7.003 z m 18.75,-7.004 h 9.75 v 7.003 h -9.75 z m -27.75,0 v 7.004 h -9.75 v -7.004 z m -18.75,0 v 7.004 h -6.284 c 0.04,-2.334 0.091,-4.668 0.107,-7.004 z m -40.021,207 7.857,-27.278 A 665.367,665.367 0 0 0 44.866,227.783 h 98.225 a 665.367,665.367 0 0 0 25.051,149.026 L 176,404.087 Z m 173.408,0 -8.575,-29.769 a 657.235,657.235 0 0 1 -9.68,-37.901 637.449,637.449 0 0 0 8.093,-45.332 638.889,638.889 0 0 0 5.343,-55.502 h 93.461 a 636.353,636.353 0 0 0 23.956,142.688 l 7.436,25.814 H 185.366 Z m 243.887,0 H 314.766 l -8.153,-28.305 a 628.38,628.38 0 0 1 -8.554,-33.104 h 56.515 v -19.15 h 74.68 v 80.559 z"
       id="path2"
       style="stroke:#f44336;stroke-width:1.98776;stroke-miterlimit:4;stroke-dasharray:none;stroke-opacity:1" /><path
       d="m 364.008,370.899 h 9 v 17.73 h -9 z m -22.695,0 h 9 v 17.73 h -9 z m -22.695,0 h 9 v 17.73 h -9 z m 68.085,0 h 9 v 17.73 h -9 z m 22.695,0 h 9 v 17.73 h -9 z m -45.39,-39.106 h 9 v 24.922 h -9 z m 22.695,0 h 9 v 24.922 h -9 z m 22.695,0 h 9 v 24.922 h -9 z"
       id="path4"
       style="stroke-width:1.52905" /></g></svg>
