<svg xmlns="http://www.w3.org/2000/svg" viewBox="0 0 438.253 438.253" xml:space="preserve"><g fill="#f44336"><path d="m413.426 314.527-5.764-266.46a4.487 4.487 0 0 0 2.965-4.214c0-2.011-1.328-3.694-3.149-4.271l-.217-10.014a4.5 4.5 0 0 0-4.499-4.402h-22.41a4.5 4.5 0 0 0-4.499 4.402l-.217 10.014c-1.82.576-3.149 2.259-3.149 4.271 0 1.944 1.239 3.584 2.965 4.214l-5.764 266.46h-24.117v19.15h-49.518a627.213 627.213 0 0 1-13.907-127.021h1.962a4.5 4.5 0 0 0 0-9H170.519a4.5 4.5 0 0 0 0 9h1.887c-.201 27.741-2.241 55.696-6.116 83.171a629.306 629.306 0 0 1-3.856 23.904 656.304 656.304 0 0 1-11.257-116.646h2.019a4.5 4.5 0 0 0 0-9H34.759a4.5 4.5 0 0 0 0 9h2.019c-.411 59.977-9.006 119.58-25.611 177.231L0 413.087h438.253v-98.56h-24.827zM383.598 87.736h15.92l.657 30.383h-17.234l.657-30.383zm-.852 39.383h17.624l.657 30.382h-18.938l.657-30.382zm16.577-48.383h-15.53l.657-30.383h14.216l.657 30.383zm-17.428 87.765h19.327l.657 30.383h-20.642l.658-30.383zm-.852 39.383h21.031l.657 30.383h-22.346l.658-30.383zm-.852 39.382h22.735l.657 30.382h-24.05l.658-30.382zm18.168-211.099.112 5.187h-13.826l.112-5.187h13.602zm-19.02 250.481h24.439l.646 29.879h-25.732l.647-29.879zm-105.748-58.064h-92.624c.06-1.543.101-3.085.149-4.628h92.323c.048 1.543.093 3.086.152 4.628zm-23.893-13.628v-6.299h8.919v6.299h-8.919zm-9 0h-8.919v-6.299h8.919v6.299zm-17.919 0h-8.919v-6.299h8.919v6.299zm-17.919 0h-8.919v-6.299h8.919v6.299zm68.363 0h-5.607v-6.299h5.508c.016 2.101.064 4.199.099 6.299zm-86.282-6.299v6.299h-5.606c.036-2.1.083-4.201.098-6.299h5.508zm-44.277 12.125h-97.37c.075-1.896.126-3.794.185-5.691h97.001c.058 1.897.109 3.795.184 5.691zm-15.685-14.691h-9.75v-7.003h9.75v7.003zm9-7.003h6.176c.016 2.335.067 4.669.107 7.003h-6.283v-7.003zm-56.25 7.003v-7.003h9.75v7.003h-9.75zm18.75-7.004h9.75v7.003h-9.75v-7.003zm-27.75 0v7.004h-9.75v-7.004h9.75zm-18.75 0v7.004h-6.284c.04-2.334.091-4.668.107-7.004h6.177zm-40.021 207 7.857-27.278a665.367 665.367 0 0 0 25.051-149.026h98.225a665.367 665.367 0 0 0 25.051 149.026L176 404.087H11.958zm173.408 0-8.575-29.769a657.235 657.235 0 0 1-9.68-37.901 637.449 637.449 0 0 0 8.093-45.332 638.889 638.889 0 0 0 5.343-55.502h93.461a636.353 636.353 0 0 0 23.956 142.688l7.436 25.814H185.366zm243.887 0H314.766l-8.153-28.305a628.38 628.38 0 0 1-8.554-33.104h56.515v-19.15h74.68v80.559z"/><path d="M364.008 370.899h9v17.73h-9zM341.313 370.899h9v17.73h-9zM318.618 370.899h9v17.73h-9zM386.703 370.899h9v17.73h-9zM409.398 370.899h9v17.73h-9zM364.008 331.793h9v24.922h-9zM386.703 331.793h9v24.922h-9zM409.398 331.793h9v24.922h-9z"/></g></svg>
