<svg version="1.2" viewBox="0 0 64 64" xmlns="http://www.w3.org/2000/svg">
 <g transform="matrix(.11525 0 0 .11869 -3.6402 -14.704)" fill-rule="evenodd" style="stroke-width:8.5502">
  <path d="m34.383 302.98-2.573 7.198 3.618-3.761 1.029-0.977zm10.413-23.86-4.601 9.573-1.044 2.52 5.69 6.781 4.072-3.178 3.512-2.498zm15.045-26.381-0.772 1.135-6.871 11.275-1.211 2.248 10.958 18.972 2.028-1.165 5.343-2.747 1.149-0.515zm21.402-28.553-6.767 8.173-6.825 9.066 13.198 36.234 5.313-1.794 3.995-1.135zm29.709-29.877-9.67 8.666-9.429 9.399-1.089 1.196 10.352 58.695 2.967-0.553 6.206-0.756 0.665-0.045v-76.602zm39.868-28.757-7.372 4.479-11.154 7.522-10.126 7.538v85.234l0.742-0.016 6.326 0.159 3.043 0.234zm51.081-24.247-10.096 3.799-12.592 5.441-12.305 5.933-3.421 1.885-20.054 113.67 4.359 0.809 5.75 1.294zm61.586-14.832-4.329 0.53-13.985 2.369-13.774 3.02-13.485 3.662-2.451 0.78-51.172 140.61 1.104 0.371 5.616 2.217 3.041 1.355zm69.545-1.007-1.634-0.196-14.425-1.037-14.56-0.349-14.62 0.349-10.504 0.756-93.232 161.51 2.921 1.68 5.024 3.179 1.151 0.817zm72.56 16.861-5.509-2.074-13.229-4.2-13.485-3.662-13.727-3.02-13.35-2.255-144.2 171.84 3.935 3.36 4.178 3.958zm68.895 36.726-2.014-1.499-11.154-7.522-11.563-7.022-11.896-6.531-12.245-5.933-8.172-3.519-199.63 167.52 0.528 0.621 2.967 3.746 31.996-27.267 5.872 11.722zm-183.35 188.04 7.704 15.348 22.37-20.652zm-13.788-27.47 8.538 17.004 50.583-8.922 52.973-48.872zm254.91-104.72-1.906-2.543-8.49-10.193-8.946-9.792-9.429-9.399-9.929-8.9-9.323-7.696-220.02 127.03 8.082 16.119 138.5-50.408 57.196-52.785 13.622 27.001zm39.292 71.355-1.892-5.297-5.086-12.268-5.736-11.918-6.266-11.625-6.871-11.275-6.479-9.565-52.505 19.116 26.806 53.064zm15.256 80.316-0.165-6.917-1.137-13.652-1.771-13.455-2.527-13.251-3.208-13.061-2.786-9.233-56.408 9.944 30.104 59.625zm-6.054 63.023 0.454-1.877 2.527-13.258 1.771-13.456 1.137-13.637 0.241-9.58h-32.314zm-328.83-63.023-4.812-11.715-1.772 0.311 0.697 5.577 0.454 5.828h5.433zm10.504 25.639-5.917-14.424h-9.944l-0.044 1.846-0.485 6.206-0.425 3.405zm200.24-25.639-17.451-46.647-24.397 4.299-53.58 42.349h95.428zm24.397 65.232-20.205-54.017h-113.82l-31.449 24.853zm-211.59-7.748-8.022-19.57-23.824-4.193-0.832 3.693-1.679 5.813-0.516 1.559zm241.59 87.92-25.428-67.973-181.84-32.056-21.311 16.846zm-30.966 67.08 7.461-6.114 9.929-8.945 9.429-9.354 8.946-9.793 5.16-6.221-4.797-12.834-285.65-103.96-2.15 4.708-2.693 5.297-0.167 0.272zm-66.58 40.003 6.099-2.589 12.245-5.979 11.896-6.478 11.563-7.023 11.154-7.536 4.011-2.997-250.78-144.78-0.182 0.303-3.512 4.858-3.086 3.92zm-71.273 20.508 11.397-1.923 13.727-3.026 13.485-3.663 13.229-4.237 7.658-2.876-196.32-164.73-1.06 1.12-4.329 4.042-2.829 2.451zm-312.86-179.38-3.799-3.95 2.134 5.934zm16.119 13.456-2.588-1.816-4.692-3.663-0.499-0.454-5.297 6.312 1.77 4.254 3.92 8.157zm18.268 10.684-0.454-0.195-5.343-2.695-3.012-1.74-10.7 18.526 1.938 3.602 6.871 11.321 0.136 0.212zm19.993 7.478-3.601-1.029-5.783-1.938-0.272-0.121-13.106 36.007 7.475 9.943 6.373 7.69zm21.189 3.935-0.665-0.061-6.206-0.803-3.359-0.59-10.353 58.725 1.483 1.635 9.429 9.354 9.67 8.718v-76.978zm21.72 0.166-3.436 0.257-6.326 0.122-0.742-0.031v85.636l10.126 7.568 11.154 7.536 7.902 4.784zm21.628-3.617-0.514 0.151-5.994 1.362-3.965 0.696 20.16 114.39 2.921 1.604 12.305 5.979 12.592 5.389 11.185 4.222zm20.782-7.537-4.071 1.861-5.616 2.225-0.363 0.122 51.521 141.57 1.362 0.425 13.485 3.663 13.774 3.026 13.985 2.36 5.977 0.727zm127.33 158.37 14.56-0.332 14.425-1.044 3.647-0.439-140.71-167.71-2.332 1.62-5.024 3.239-1.938 1.119 93.854 162.57 8.898 0.649z" fill="#d24a43" style="stroke-width:9.0106"/>
  <path d="m529.56 554.52-87.24-232.27-161.28 127.5-45.511-110.35-136.96 82.304 153.77-125.17 45.527 92.182 169.15-156.63 113.38 222.62c-10.155 41.381-23.413 61.995-50.838 99.803" fill="#516db1" style="stroke-width:9.0106"/>
 </g>
</svg>
