<svg xmlns="http://www.w3.org/2000/svg" xml:space="preserve" viewBox="0 0 562.626 562.626"><path fill="#f44336" d="M558.332 381.552a1.6 1.6 0 0 0-.121-.625l-15.915-36.511-12.19-60.327c-.028-.124-.094-.229-.149-.338v-14.729h22.449v-5.854h-22.449v-13.995h22.449v-5.855h-22.449v-12.113h22.327v-5.85h-22.327v-13.266h22.449v-5.85h-22.449V192.58c0-.259-.074-.493-.178-.698-.064-.238-.158-.469-.316-.646L517.3 171.394a1.565 1.565 0 0 0-1.4-.745 1.544 1.544 0 0 0-1.32.84l-10.459 20.052a1.915 1.915 0 0 0-.14.406 1.581 1.581 0 0 0-.126.637v13.658h-21.222v5.851h.588c-11.873 5.841-20.73 2.676-25.23 0h.99v-5.851H436.54v-13.658a1.55 1.55 0 0 0-.187-.697c-.065-.238-.159-.469-.309-.645l-12.172-19.844a1.559 1.559 0 0 0-1.391-.745 1.57 1.57 0 0 0-1.335.84l-10.444 20.052c-.075.13-.112.268-.141.408a1.438 1.438 0 0 0-.145.635v13.658h-21.212v5.85h4.149c-11.859 5.841-20.731 2.677-25.216 0h1.105v-5.85h-22.443v-13.658c0-.259-.08-.492-.178-.698-.07-.238-.159-.469-.317-.644l-12.162-19.845a1.56 1.56 0 0 0-1.392-.744 1.554 1.554 0 0 0-1.334.84l-10.455 20.052a1.623 1.623 0 0 0-.13.409 1.422 1.422 0 0 0-.141.635v13.658h-21.226v5.85h9.092c-13.367 12.956-30.465 22.117-47.798 28.602v-14.799a3.122 3.122 0 0 0-3.127-3.131H80.188a3.138 3.138 0 0 0-3.137 3.131v27.158H0v132.303h77.051v3.477a3.14 3.14 0 0 0 3.137 3.137h177.438c1.736 0 3.127-1.4 3.127-3.137V281.371c12.377-2.786 27.113-6.776 41.853-12.349h18.08v15.059l-14.066 60.312-15.925 36.534a1.595 1.595 0 0 0-.116.625h-4.396v4.597h23.503v-4.597h-5.601l24.592-35.097h8.391l24.297 35.097h-5.414v4.597H399.402v-4.597h-5.61l24.605-35.097h8.392l24.296 35.097h-5.404v4.597h23.504v-4.597h-4.294c0-.21-.037-.43-.117-.625l-15.914-36.511-12.195-60.327c-.028-.124-.094-.229-.135-.338v-14.729h22.434v-5.854H436.53v-13.995h22.434v-5.855H436.53v-12.113h17.394c1.937 1.578 7.767 5.645 16.325 5.645 5.05 0 11.075-1.449 17.81-5.645h15.794v12.113h-21.227v5.855h21.227v13.995h-21.227v5.854h21.227v15.059l-14.066 60.312-15.934 36.534a1.587 1.587 0 0 0-.107.625h-4.396v4.597h23.504v-4.597h-5.615l24.596-35.097h8.392l24.306 35.097h-5.404v4.597h23.504v-4.597h-4.301zm-483.362-.383h-49.9V267.673h49.9v113.496zm0-117.673H20.888v117.673H4.182V257.235h70.792v6.261h-.004zm351.265-.329 7.154-3.729v3.729h-7.154zm7.155 5.855v11.077l-16.755-11.077h16.755zm-8.373-25.699 8.373-5.185v5.185h-8.373zm8.373 5.85v5.904l-14.286-5.904h14.286zm-15.971-23.814 15.971-7.803v7.803h-15.971zm15.971 5.85v3.456l-7.785-3.456h7.785zm-14.408-24.966-4.107-2.035 18.52-8.665v10.695h-14.412v.005zm14.408 5.85v1.267l-2.562-1.267h2.562zm-10.753-36.704 9.386 15.313h-17.357l7.971-15.313zm-9.097 18.764h16.914l-16.914 7.908v-7.908zm0 17.94h11.631l6.805 3.36-18.436 9.012v-12.372zm0 19.116h5.886l11.882 5.276-11.061 6.844h-6.707v-12.12zm0 18.337c.075.049.136.101.225.128l18.36 7.588-11.304 5.899h-7.281v-13.615zm0 20.435 19.438 12.851H413.54v-12.851zm-.354 15.99h20.666l1.372 6.809h-23.625l1.587-6.809zm-7.533 38.737 17.511-7.281 16.979 7.244-17.688 7.967-16.802-7.93zm13.791 9.278-19.509 8.802 3.795-16.228 15.714 7.426zm-14.748-11.598 2.717-11.678 12.521 5.344-15.238 6.334zm4.943-13.456 13.665-6.804 13.769 6.8-13.89 5.777-13.544-5.773zm13.656-9.599-8.214-4.056h16.344l-8.13 4.056zM410.848 296l9.619 4.736-12.135 6.049L410.848 296zm-30.472-78.598c4.929 0 10.771-1.351 17.306-5.309h12.723v13.266h-21.329v5.85h4.929c-12.694 6.553-22.047 2.772-26.425 0h1.55v-5.85h-22.327v-1.939c5.119-3.418 9.978-7.185 14.43-11.327h3.249c2.266 1.748 7.876 5.309 15.894 5.309zm-59.683 13.807v3.813c-6.151 2.63-12.419 4.917-18.659 6.912 3.557-3.341 6.814-6.912 9.676-10.725h8.983zm0 6.061v6.053h-16.231a211.59 211.59 0 0 0 16.231-6.053zm22.972-23.915-2.558-1.267h2.558v1.267zm0 9.619c-1.26.817-2.539 1.61-3.836 2.385h-12.126l15.962-7.803v5.418zm-5.661 26.199c-1.106.733-2.24 1.458-3.389 2.166l-5.236-2.166h8.625zm-2.702-5.85 8.363-5.185v5.185h-8.363zm8.363-8.662-7.775-3.456h7.775v3.456zm-11.873-2.525 9.791 4.345-11.051 6.842h-6.712v-7.407a178.063 178.063 0 0 0 7.972-3.78zm-7.972 17.41c.075.049.141.101.215.128l7.915 3.274a165.408 165.408 0 0 1-8.13 4.478v-7.88zm10.511 4.383 8.074 3.334-11.313 5.899h-7.271v-3.428a160.594 160.594 0 0 0 10.51-5.805zm-7.412 15.093h16.746v11.077l-16.746-11.077zm16.335 13.81H323.82v-12.851l19.434 12.851zm-6.739-19.665 7.15-3.729v3.729h-7.15zm-13.054 22.804h20.657l1.381 6.809h-23.625l1.587-6.809zm18.244 9.311-8.14 4.056-8.214-4.056h16.354zm-8.13 6.846 13.776 6.8-13.898 5.777-13.524-5.773 13.646-6.804zm16.838 22.538-17.679 7.967-16.801-7.925 17.511-7.281 16.969 7.239zm1.909 1.889 3.389 16.765h-.341l-19.648-9.273 16.6-7.492zm-15.648-10.482 12.484-5.189 2.324 11.509-14.808-6.32zm-.285-15.35 9.745-4.849 2.166 10.715-11.911-5.866zm7.276-51.55v5.904l-6.692-2.768c1.605-1.02 3.183-2.07 4.732-3.136h1.96zm3.137-17.964h12.152c-3.584 4.163-7.682 8.025-12.152 11.598v-11.598zm11.307-19.116c-3.542 3.159-7.332 6.088-11.308 8.807v-8.807h11.308zm-14.444-5.85h-14.402l-4.117-2.035 18.52-8.665v10.7zm-10.753-30.854 9.39 15.313H324.94l7.972-15.313zm-9.092 18.764h16.914l-16.914 7.908v-7.908zm0 17.94h11.631l6.805 3.36-18.431 9.012v-12.372h-.005zm5.186 19.116a159.094 159.094 0 0 1-5.19 2.441v-2.441h5.19zm-17.492-19.116h9.18v13.266h-21.352v5.85h9.745c-3.459 4.387-7.444 8.44-11.822 12.19-12.867 3.815-25.47 6.415-36.513 8.184v-8.671c18.484-6.842 36.783-16.673 50.762-30.819zm-18.333 34.635c-9.686 7.483-20.927 13.639-32.424 18.661V253.68c9.859-1.562 20.973-3.795 32.424-6.952zm-62.137 8.213c-.019-1.118-.243-2.179-.588-3.188 7.719-1.725 15.847-3.904 24.036-6.644v7.404c-9.79 1.378-17.976 2.081-23.448 2.428zm-75.418 130.756h-48.055v-75.21h48.055v75.21zm98.87 0h-92.604v-78.332a3.14 3.14 0 0 0-3.136-3.137h-54.318a3.135 3.135 0 0 0-3.127 3.137v78.332h-17.99V229.025h171.17v13.901c-8.485 2.868-16.932 5.129-24.925 6.902-1.82-3.064-5.122-5.129-8.942-5.129-5.181 0-9.446 3.766-10.265 8.708a294.947 294.947 0 0 1-15.423 1.925c0-.072.021-.124.021-.196a10.439 10.439 0 0 0-10.447-10.443c-5.769 0-10.447 4.674-10.447 10.443 0 5.768 4.679 10.452 10.447 10.452 4.975 0 9.117-3.484 10.174-8.135a303.26 303.26 0 0 0 15.532-1.925c.205 5.586 4.77 10.06 10.41 10.06 5.112 0 9.351-3.685 10.249-8.541 5.463-.348 13.703-1.05 23.616-2.437v13.399c-9.941 3.981-19.9 7.155-29.039 9.661-1.449-.761-3.083-1.239-4.826-1.239a10.422 10.422 0 0 0-8.672 4.623 328.367 328.367 0 0 1-17.284 3.454c-1.085-4.621-5.208-8.072-10.156-8.072-5.769 0-10.447 4.679-10.447 10.447 0 5.773 4.679 10.449 10.447 10.449a10.441 10.441 0 0 0 10.447-10.449c0-.103-.019-.196-.03-.299 4.24-.723 9.654-1.75 15.877-3.136-.383 1.083-.625 2.226-.625 3.435a10.441 10.441 0 0 0 10.447 10.449c5.766 0 10.445-4.676 10.445-10.449 0-.042-.019-.089-.019-.121 3.715-.485 12.253-1.718 23.438-4.037v102.972zM227.665 279.21c8.503-2.38 17.661-5.339 26.827-8.97v10.361c-11.285 2.341-19.919 3.594-23.662 4.082-.465-2.157-1.602-4.04-3.165-5.473zm33.092-11.565c13.485-5.827 26.665-13.177 37.539-22.395.379-.11.771-.233 1.162-.346v4.273h21.227v9.827a197.893 197.893 0 0 1-9.102 4.167h-12.125v4.816c-13.637 4.994-27.181 8.65-38.706 11.25v-11.593h.005zm55.937-4.478a174.565 174.565 0 0 0 3.999-1.883v1.883h-3.999zM321.132 296l9.624 4.736-12.144 6.049 2.52-10.785zm-3.44 14.706 12.518 5.345-15.238 6.333 2.72-11.678zm-3.691 15.859 15.737 7.425-19.518 8.803 3.781-16.228zm-12.652 53.414h-6.823l14.622-33.527h15.704l-23.503 33.527zm13.791-36.659 17.567-7.925 16.792 7.925H315.14zm48.953 36.659-23.209-33.527h15.728l14.608 33.527h-7.127zm16.209 1.573h-5.133c0-.21-.028-.43-.122-.625l-15.905-36.511-12.199-60.327c-.019-.124-.084-.229-.14-.338v-14.729h22.443v-5.854h-22.443v-13.995h22.443v-5.855h-19.783c4.526-3.731 8.652-7.761 12.228-12.113h2.361c1.941 1.578 7.766 5.645 16.325 5.645 5.06 0 11.08-1.449 17.819-5.645h12.214v12.113h-21.212v5.855h21.212v13.995h-21.212v5.854h21.212v15.059l-14.058 60.312-15.919 36.534a1.318 1.318 0 0 0-.131.625zm10.771-1.573h-6.823l14.617-33.527h15.709l-23.503 33.527zm13.786-36.659 17.567-7.925 16.792 7.925h-34.359zm56.089 36.659h-7.131l-23.214-33.527h15.728l14.617 33.527zm-15.504-36.659h-.354l-19.648-9.273 16.62-7.486 3.382 16.759zm-4.228-20.923-14.817-6.319 12.489-5.189 2.328 11.508zm-3.201-15.803-11.892-5.871 9.735-4.849 2.157 10.72zM538.87 343.32h-.346l-19.657-9.273 16.629-7.486 3.374 16.759zm-22.141-41.192 13.777 6.8-13.898 5.777-13.535-5.773 13.656-6.804zm-.009-2.795-8.214-4.056h16.345l-8.131 4.056zm16.848 25.333-17.679 7.967-16.807-7.925 17.512-7.281 16.974 7.239zm1.074-2.269-14.813-6.319 12.494-5.189 2.319 11.508zm-3.193-15.803-11.9-5.871 9.735-4.849 2.165 10.72zm-11.77-43.427 7.15-3.729v3.729h-7.15zm7.15 5.855v11.077l-16.755-11.077h16.755zm-8.373-25.699 8.373-5.185v5.185h-8.373zm8.373 5.85v5.904l-14.291-5.904h14.291zm-15.984-23.814 15.984-7.803v7.803h-15.984zm15.984 5.85v3.456l-7.794-3.456h7.794zm-14.417-24.966-4.111-2.035 18.528-8.665v10.695h-14.417v.005zm14.417 5.85v1.267l-2.566-1.267h2.566zm-10.762-36.704 9.39 15.313h-17.361l7.971-15.313zm-9.091 18.764h16.913l-16.913 7.908v-7.908zm0 17.94h11.63l6.805 3.36-18.43 9.012v-12.372h-.005zm0 19.116h5.89l11.868 5.276-11.056 6.844h-6.712v-12.12h.01zm0 18.337c.074.049.14.101.224.128l18.37 7.588-11.322 5.899h-7.267v-13.616h-.005zm0 20.435 19.434 12.851h-19.434v-12.851zm-.355 15.99h20.665l1.373 6.809h-23.625l1.587-6.809zm-24.12-60.612v5.85h1.372c-12.703 6.553-22.057 2.772-26.435 0h1.41v-5.85H436.53v-13.266h17.819c2.264 1.748 7.878 5.309 15.896 5.309 4.929 0 10.771-1.351 17.297-5.309h16.307v13.266h-21.348zM504.282 296l9.629 4.736-12.145 6.049L504.282 296zm-3.429 14.706 12.526 5.345-15.252 6.333 2.726-11.678zm-3.697 15.859 15.728 7.425-19.508 8.803 3.78-16.228zm-12.648 53.414h-6.823l14.617-33.527h15.71l-23.504 33.527zm13.782-36.659 17.571-7.925 16.792 7.925H498.29zm48.957 36.659-23.209-33.527h15.729l14.617 33.527h-7.137zm-405.452-27.428c.233-1.503 1.587-4.289 5.031-4.019l4.879-.005c.579 0 1.048.472 1.048 1.055 0 .574-.469 1.041-1.048 1.041h-4.954c-2.389-.163-2.849 1.998-2.886 2.245a1.06 1.06 0 0 1-1.029.892c-.065 0-.11 0-.166-.01a1.06 1.06 0 0 1-.875-1.199z"/></svg>
