<?xml version='1.0' encoding='iso-8859-1'?>
<svg version="1.1" xmlns="http://www.w3.org/2000/svg" viewBox="0 0 441.592 441.592" xmlns:xlink="http://www.w3.org/1999/xlink" enable-background="new 0 0 441.592 441.592">
  <path d="m150.98,342.284c-5.799,0-10.5-4.701-10.5-10.5v-72.666c0-5.799 4.701-10.5 10.5-10.5s10.5,4.701 10.5,10.5v72.666c0,5.799-4.701,10.5-10.5,10.5zm80.315-10.5v-72.666c0-5.799-4.701-10.5-10.5-10.5s-10.5,4.701-10.5,10.5v72.666c0,5.799 4.701,10.5 10.5,10.5s10.5-4.701 10.5-10.5zm169.167,71.407c-5.173-2.621-11.492-0.549-14.111,4.625-3.903,7.711-13.889,12.694-25.438,12.693-11.548,0-21.532-4.982-25.435-12.693-1.788-3.532-5.41-5.758-9.368-5.758s-7.581,2.226-9.368,5.758c-3.903,7.711-13.887,12.693-25.435,12.694-11.55,0-21.536-4.982-25.441-12.694-1.788-3.532-5.41-5.757-9.368-5.757-3.958,0-7.58,2.226-9.368,5.758-3.903,7.711-13.886,12.693-25.433,12.693-11.547,0-21.531-4.982-25.435-12.694-1.788-3.532-5.41-5.757-9.369-5.757-3.958,0-7.58,2.227-9.368,5.759-3.902,7.709-13.883,12.692-25.429,12.693-11.549,0.001-21.536-4.982-25.44-12.694-1.788-3.532-5.41-5.757-9.368-5.757-3.958,0-7.58,2.226-9.368,5.758-3.903,7.711-13.887,12.693-25.436,12.693s-21.533-4.982-25.437-12.694c-2.619-5.173-8.936-7.247-14.11-4.625-5.174,2.619-7.245,8.937-4.625,14.11 7.56,14.933 24.486,24.208 44.173,24.208 13.669,0 26.008-4.473 34.804-12.205 8.797,7.734 21.138,12.207 34.81,12.206 13.667-0.001 26.002-4.474 34.796-12.205 8.796,7.732 21.134,12.205 34.803,12.204 13.668,0 26.005-4.473 34.801-12.205 8.797,7.734 21.137,12.206 34.809,12.206 13.669,0 26.007-4.473 34.803-12.206 8.795,7.732 21.133,12.205 34.802,12.205 0.001,0 0.001,0 0.002,0 19.687,0 36.614-9.276 44.173-24.208 2.619-5.174 0.548-11.492-4.626-14.111zm0-49.292c-5.173-2.62-11.492-0.549-14.111,4.625-3.903,7.711-13.889,12.694-25.438,12.693-11.548,0-21.532-4.982-25.435-12.693-1.788-3.532-5.41-5.758-9.368-5.758s-7.581,2.226-9.368,5.758c-3.903,7.711-13.887,12.693-25.435,12.694-11.55,0-21.536-4.982-25.441-12.694-1.788-3.532-5.41-5.757-9.368-5.757-3.958,0-7.58,2.226-9.368,5.758-3.903,7.711-13.886,12.693-25.433,12.693-11.547,0-21.531-4.982-25.435-12.694-1.788-3.532-5.41-5.757-9.369-5.757-3.958,0-7.58,2.227-9.368,5.759-3.902,7.709-13.883,12.692-25.429,12.693-11.549,0.001-21.536-4.982-25.44-12.694-1.788-3.532-5.41-5.757-9.368-5.757-3.958,0-7.58,2.226-9.368,5.758-3.903,7.711-13.887,12.693-25.436,12.693s-21.533-4.982-25.437-12.694c-2.619-5.173-8.936-7.246-14.11-4.625-5.174,2.619-7.245,8.937-4.625,14.11 7.56,14.933 24.486,24.208 44.173,24.208 13.669,0 26.008-4.473 34.804-12.205 8.797,7.734 21.138,12.207 34.81,12.206 13.667-0.001 26.002-4.474 34.796-12.205 8.796,7.732 21.134,12.205 34.803,12.204 13.668,0 26.005-4.473 34.801-12.205 8.797,7.734 21.137,12.206 34.809,12.206 13.669,0 26.007-4.473 34.803-12.206 8.795,7.732 21.133,12.205 34.802,12.205 0.001,0 0.001,0 0.002,0 19.687,0 36.614-9.276 44.173-24.208 2.619-5.174 0.548-11.492-4.626-14.111zm-308.796-22.115v-72.666c0-5.799-4.701-10.5-10.5-10.5s-10.5,4.701-10.5,10.5v72.666c0,5.799 4.701,10.5 10.5,10.5s10.5-4.701 10.5-10.5zm129.151-236.824c-5.799,1.42109e-14-10.5,4.701-10.5,10.5v20.539c0,5.799 4.701,10.5 10.5,10.5s10.5-4.701 10.5-10.5v-20.539c0-5.799-4.701-10.5-10.5-10.5zm220.775,220.141c0,2.785-1.106,5.456-3.075,7.424-1.969,1.969-4.64,3.076-7.425,3.076h-18.195c-5.799,0-10.5-4.701-10.5-10.5s4.701-10.5 10.5-10.5h7.695l-.001-73.223h-399.589l-.002,73.223h7.695c5.799,0 10.5,4.701 10.5,10.5s-4.701,10.5-10.5,10.5h-18.195c-2.785,0-5.456-1.106-7.425-3.076-1.969-1.969-3.075-4.64-3.075-7.424l.002-94.223c0-5.799 4.701-10.5 10.5-10.5h147.224v-31.575h-42.078c-5.799,0-10.5-4.701-10.5-10.5v-105.148c0-5.799 4.701-10.5 10.5-10.5h42.078v-31.571h-42.078c-5.799,0-10.5-4.701-10.5-10.5s4.701-10.5 10.5-10.5h52.377c0.134-0.003 0.268-0.003 0.402,0h104.738c0.134-0.003 0.267-0.003 0.402,0h52.376c5.799,0 10.5,4.701 10.5,10.5s-4.701,10.5-10.5,10.5h-42.078v31.572h42.078c5.799,0 10.5,4.701 10.5,10.5v105.148c0,5.799-4.701,10.5-10.5,10.5h-42.078v31.575h147.225c5.799,0 10.5,4.701 10.5,10.5l.002,94.222zm-262.866-262.446h84.14v-31.571h-84.14v31.571zm84.14,126.148h-84.14v31.575h84.14v-31.575zm10.5-21h42.078v-84.148h-189.296v84.148h147.218zm27.744,173.981v-72.666c0-5.799-4.701-10.5-10.5-10.5s-10.5,4.701-10.5,10.5v72.666c0,5.799 4.701,10.5 10.5,10.5s10.5-4.701 10.5-10.5zm-27.739-236.824c-5.799,1.42109e-14-10.5,4.701-10.5,10.5v20.539c0,5.799 4.701,10.5 10.5,10.5s10.5-4.701 10.5-10.5v-20.539c0-5.799-4.702-10.5-10.5-10.5zm-105.107,0c-5.799,0-10.5,4.701-10.5,10.5v20.539c0,5.799 4.701,10.5 10.5,10.5s10.5-4.701 10.5-10.5v-20.539c0-5.799-4.701-10.5-10.5-10.5zm202.661,236.824v-72.666c0-5.799-4.701-10.5-10.5-10.5s-10.5,4.701-10.5,10.5v72.666c0,5.799 4.701,10.5 10.5,10.5s10.5-4.701 10.5-10.5z"/>
</svg>
