<?xml version="1.0" encoding="iso-8859-1"?>
<!-- Generator: Adobe Illustrator 18.0.0, SVG Export Plug-In . SVG Version: 6.00 Build 0)  -->
<!DOCTYPE svg PUBLIC "-//W3C//DTD SVG 1.1//EN" "http://www.w3.org/Graphics/SVG/1.1/DTD/svg11.dtd">
<svg version="1.1" id="Capa_1" xmlns="http://www.w3.org/2000/svg" xmlns:xlink="http://www.w3.org/1999/xlink" x="0px" y="0px"
	 viewBox="0 0 438.253 438.253" style="enable-background:new 0 0 438.253 438.253;" xml:space="preserve">
<g>
	<path style="fill:#191918;" d="M413.426,314.527l-5.764-266.46c1.726-0.629,2.965-2.27,2.965-4.214
		c0-2.011-1.328-3.694-3.149-4.271l-0.217-10.014c-0.053-2.446-2.052-4.402-4.499-4.402h-22.41c-2.447,0-4.446,1.956-4.499,4.402
		l-0.217,10.014c-1.82,0.576-3.149,2.259-3.149,4.271c0,1.944,1.239,3.584,2.965,4.214l-5.764,266.46h-24.117v19.15h-49.518
		c-8.948-41.729-13.6-84.278-13.907-127.021h1.962c2.485,0,4.5-2.015,4.5-4.5s-2.015-4.5-4.5-4.5h-2.002h-109.66h-1.927
		c-2.485,0-4.5,2.015-4.5,4.5s2.015,4.5,4.5,4.5h1.887c-0.201,27.741-2.241,55.696-6.116,83.171
		c-1.125,7.967-2.419,15.953-3.856,23.904c-7.216-38.43-10.989-77.456-11.257-116.646h2.019c2.485,0,4.5-2.015,4.5-4.5
		s-2.015-4.5-4.5-4.5H34.759c-2.485,0-4.5,2.015-4.5,4.5s2.015,4.5,4.5,4.5h2.019c-0.411,59.977-9.006,119.58-25.611,177.231
		L0,413.087h438.253v-98.56H413.426z M383.598,87.736h15.92l0.657,30.383h-17.234L383.598,87.736z M382.746,127.119h17.624
		l0.657,30.382h-18.938L382.746,127.119z M399.323,78.736h-15.53l0.657-30.383h14.216L399.323,78.736z M381.895,166.501h19.327
		l0.657,30.383h-20.642L381.895,166.501z M381.043,205.884h21.031l0.657,30.383h-22.346L381.043,205.884z M380.191,245.266h22.735
		l0.657,30.382h-24.05L380.191,245.266z M398.359,34.167l0.112,5.187h-13.826l0.112-5.187H398.359z M379.339,284.648h24.439
		l0.646,29.879h-25.732L379.339,284.648z M273.591,226.584h-92.624c0.06-1.543,0.101-3.085,0.149-4.628h92.323
		C273.487,223.499,273.532,225.042,273.591,226.584z M249.698,212.956v-6.299h8.919v6.299H249.698z M240.698,212.956h-8.919v-6.299
		h8.919V212.956z M222.779,212.956h-8.919v-6.299h8.919V212.956z M204.86,212.956h-8.919v-6.299h8.919V212.956z M273.223,212.956
		h-5.607v-6.299h5.508C273.14,208.758,273.188,210.856,273.223,212.956z M186.941,206.657v6.299h-5.606
		c0.036-2.1,0.083-4.201,0.098-6.299H186.941z M142.664,218.782h-97.37c0.075-1.896,0.126-3.794,0.185-5.691h97.001
		C142.538,214.988,142.589,216.886,142.664,218.782z M126.979,204.091h-9.75v-7.003h9.75V204.091z M135.979,197.088h6.176
		c0.016,2.335,0.067,4.669,0.107,7.003h-6.283V197.088z M79.729,204.091v-7.003h9.75v7.003H79.729z M98.479,197.087h9.75v7.003
		h-9.75V197.087z M70.729,197.087v7.004h-9.75v-7.004H70.729z M51.979,197.087v7.004h-6.284c0.04-2.334,0.091-4.668,0.107-7.004
		H51.979z M11.958,404.087l7.857-27.278c14.002-48.613,22.382-98.595,25.051-149.026h98.225
		c2.669,50.431,11.049,100.413,25.051,149.026L176,404.087H11.958z M185.366,404.087l-8.575-29.769
		c-3.613-12.545-6.825-25.187-9.68-37.901c3.224-14.922,5.952-30.165,8.093-45.332c2.589-18.356,4.363-36.924,5.343-55.502h93.461
		c2.539,48.278,10.552,96.138,23.956,142.688l7.436,25.814H185.366z M429.253,404.087H314.766l-8.153-28.305
		c-3.157-10.965-6.003-22.005-8.554-33.104h56.515v-19.15h74.68V404.087z"/>
	<rect x="364.008" y="370.899" style="fill:#191918;" width="9" height="17.73"/>
	<rect x="341.313" y="370.899" style="fill:#191918;" width="9" height="17.73"/>
	<rect x="318.618" y="370.899" style="fill:#191918;" width="9" height="17.73"/>
	<rect x="386.703" y="370.899" style="fill:#191918;" width="9" height="17.73"/>
	<rect x="409.398" y="370.899" style="fill:#191918;" width="9" height="17.73"/>
	<rect x="364.008" y="331.793" style="fill:#191918;" width="9" height="24.922"/>
	<rect x="386.703" y="331.793" style="fill:#191918;" width="9" height="24.922"/>
	<rect x="409.398" y="331.793" style="fill:#191918;" width="9" height="24.922"/>
</g>
<g>
</g>
<g>
</g>
<g>
</g>
<g>
</g>
<g>
</g>
<g>
</g>
<g>
</g>
<g>
</g>
<g>
</g>
<g>
</g>
<g>
</g>
<g>
</g>
<g>
</g>
<g>
</g>
<g>
</g>
</svg>
